<svg width="16" height="16" viewBox="0 0 16 16" fill="none" xmlns="http://www.w3.org/2000/svg">
<path d="M7.33333 14C7.57576 14 7.82323 13.9922 8.07576 13.9766C8.20202 14.3203 8.35859 14.6406 8.54545 14.9375C8.34343 14.9583 8.14141 14.974 7.93939 14.9844C7.73737 14.9948 7.53535 15 7.33333 15C6.65657 15 5.99495 14.9427 5.34848 14.8281C5.16162 14.7969 4.9495 14.7513 4.71212 14.6914C4.47475 14.6315 4.23232 14.556 3.98485 14.4648C3.73737 14.3737 3.49495 14.2669 3.25758 14.1445C3.0202 14.0221 2.80808 13.8802 2.62121 13.7188C2.43434 13.5573 2.28409 13.3763 2.17045 13.1758C2.05682 12.9753 2 12.75 2 12.5V3.5C2 3.26563 2.04924 3.05599 2.14773 2.87109C2.24621 2.6862 2.37374 2.51563 2.5303 2.35937C2.70202 2.18229 2.90783 2.02604 3.14773 1.89063C3.38763 1.75521 3.64646 1.63672 3.92424 1.53516C4.20202 1.43359 4.49242 1.34896 4.79545 1.28125C5.09848 1.21354 5.39899 1.15885 5.69697 1.11719C5.99495 1.07552 6.28283 1.04557 6.56061 1.02734C6.83838 1.00911 7.09596 1 7.33333 1C7.69697 1 8.09975 1.02083 8.54167 1.0625C8.98359 1.10417 9.4255 1.17578 9.86742 1.27734C10.3093 1.37891 10.7298 1.51823 11.1288 1.69531C11.5278 1.8724 11.8636 2.09375 12.1364 2.35937C12.2929 2.51042 12.4205 2.68229 12.5189 2.875C12.6174 3.06771 12.6667 3.27604 12.6667 3.5V7.96875H11.697V4.98438C11.3939 5.17708 11.0619 5.33854 10.7008 5.46875C10.3396 5.59896 9.96843 5.70312 9.58712 5.78125C9.20581 5.85937 8.82197 5.91536 8.43561 5.94922C8.04924 5.98307 7.68182 6 7.33333 6C6.98485 6 6.61742 5.98307 6.23106 5.94922C5.8447 5.91536 5.4596 5.85937 5.07576 5.78125C4.69192 5.70312 4.32071 5.59896 3.96212 5.46875C3.60354 5.33854 3.27273 5.17708 2.9697 4.98438V12.5C2.9697 12.6042 3.00631 12.7005 3.07955 12.7891C3.15278 12.8776 3.22475 12.9505 3.29545 13.0078C3.53283 13.2005 3.82197 13.3607 4.16288 13.4883C4.50379 13.6159 4.86111 13.7174 5.23485 13.793C5.60859 13.8685 5.9798 13.9219 6.34848 13.9531C6.71717 13.9844 7.04545 14 7.33333 14ZM7.33333 2C7.07576 2 6.80682 2.00911 6.52652 2.02734C6.24621 2.04557 5.96465 2.07682 5.68182 2.12109C5.39899 2.16536 5.12121 2.22266 4.84848 2.29297C4.57576 2.36328 4.32071 2.44792 4.08333 2.54687C4.00758 2.57812 3.90657 2.6263 3.7803 2.69141C3.65404 2.75651 3.5303 2.83073 3.40909 2.91406C3.28788 2.9974 3.18434 3.08854 3.09848 3.1875C3.01263 3.28646 2.9697 3.39063 2.9697 3.5C2.9697 3.54167 2.97727 3.58073 2.99242 3.61719C3.00758 3.65365 3.02778 3.6901 3.05303 3.72656C3.16414 3.89323 3.32323 4.04167 3.5303 4.17188C3.73737 4.30208 3.9697 4.41406 4.22727 4.50781C4.48485 4.60156 4.75884 4.67969 5.04924 4.74219C5.33965 4.80469 5.62374 4.85547 5.90152 4.89453C6.17929 4.93359 6.44318 4.96094 6.69318 4.97656C6.94318 4.99219 7.15657 5 7.33333 5C7.5101 5 7.72348 4.99219 7.97348 4.97656C8.22348 4.96094 8.48737 4.93359 8.76515 4.89453C9.04293 4.85547 9.32702 4.80469 9.61742 4.74219C9.90783 4.67969 10.1818 4.60156 10.4394 4.50781C10.697 4.41406 10.928 4.30339 11.1326 4.17578C11.3371 4.04818 11.4975 3.89844 11.6136 3.72656C11.6389 3.6901 11.6591 3.65365 11.6742 3.61719C11.6894 3.58073 11.697 3.54167 11.697 3.5C11.697 3.39063 11.654 3.28646 11.5682 3.1875C11.4823 3.08854 11.3788 2.9974 11.2576 2.91406C11.1364 2.83073 11.0126 2.75651 10.8864 2.69141C10.7601 2.6263 10.6591 2.57812 10.5833 2.54687C10.346 2.44792 10.0909 2.36328 9.81818 2.29297C9.54545 2.22266 9.26768 2.16536 8.98485 2.12109C8.70202 2.07682 8.42045 2.04557 8.14015 2.02734C7.85985 2.00911 7.59091 2 7.33333 2Z" fill="white"/>
<path d="M14.48 12.8H12.1333V15.2H11.8133V12.8H9.46667V12.5H11.8133V10H12.1333V12.4H14.48V12.8Z" fill="white" stroke="white" stroke-width="0.5"/>
</svg>
