<svg width="16" height="16" viewBox="0 0 16 16" fill="none" xmlns="http://www.w3.org/2000/svg">
<path d="M7.5 1C7.875 1 8.28906 1.02083 8.74219 1.0625C9.20052 1.10417 9.65625 1.17708 10.1094 1.28125C10.5677 1.38021 11.0026 1.51823 11.4141 1.69531C11.8255 1.8724 12.1719 2.09375 12.4531 2.35938C12.6146 2.51042 12.7448 2.68229 12.8438 2.875C12.9479 3.06771 13 3.27604 13 3.5V12.5C13 12.7344 12.9479 12.9453 12.8438 13.1328C12.7448 13.3151 12.6146 13.4844 12.4531 13.6406C12.1823 13.9062 11.8385 14.1276 11.4219 14.3047C11.0104 14.4766 10.5729 14.6146 10.1094 14.7188C9.65104 14.8229 9.19271 14.8958 8.73438 14.9375C8.27604 14.9792 7.86458 15 7.5 15C7.125 15 6.70833 14.9792 6.25 14.9375C5.79688 14.8958 5.34115 14.8255 4.88281 14.7266C4.42969 14.6224 3.9974 14.4818 3.58594 14.3047C3.17448 14.1276 2.82812 13.9062 2.54688 13.6406C2.38542 13.4896 2.2526 13.3177 2.14844 13.125C2.04948 12.9323 2 12.724 2 12.5V3.5C2 3.26562 2.04948 3.05729 2.14844 2.875C2.2526 2.6875 2.38542 2.51562 2.54688 2.35938C2.81771 2.09375 3.15885 1.875 3.57031 1.70312C3.98698 1.52604 4.42448 1.38542 4.88281 1.28125C5.34635 1.17708 5.80729 1.10417 6.26562 1.0625C6.72396 1.02083 7.13542 1 7.5 1ZM7.5 2C7.23438 2 6.95573 2.01042 6.66406 2.03125C6.3776 2.04688 6.08854 2.07812 5.79688 2.125C5.50521 2.16667 5.21875 2.22396 4.9375 2.29688C4.66146 2.36458 4.39844 2.44792 4.14844 2.54688C4.07031 2.57812 3.96615 2.6276 3.83594 2.69531C3.70573 2.75781 3.57812 2.83073 3.45312 2.91406C3.32812 2.9974 3.22135 3.09115 3.13281 3.19531C3.04427 3.29427 3 3.39583 3 3.5C3 3.54167 3.00781 3.58073 3.02344 3.61719C3.03906 3.65365 3.0599 3.6901 3.08594 3.72656C3.19531 3.89323 3.35156 4.03906 3.55469 4.16406C3.76302 4.28906 3.99479 4.39844 4.25 4.49219C4.51042 4.58594 4.78646 4.66667 5.07812 4.73438C5.36979 4.79688 5.65885 4.84896 5.94531 4.89062C6.23698 4.92708 6.51562 4.95573 6.78125 4.97656C7.05208 4.99219 7.29167 5 7.5 5C7.70833 5 7.94531 4.99219 8.21094 4.97656C8.48177 4.95573 8.76042 4.92708 9.04688 4.89062C9.33854 4.84896 9.63021 4.79688 9.92188 4.73438C10.2135 4.66667 10.487 4.58594 10.7422 4.49219C11.0026 4.39844 11.2344 4.28906 11.4375 4.16406C11.6406 4.03906 11.7995 3.89323 11.9141 3.72656C11.9401 3.6901 11.9609 3.65365 11.9766 3.61719C11.9922 3.58073 12 3.54167 12 3.5C12 3.39583 11.9557 3.29427 11.8672 3.19531C11.7786 3.09115 11.6719 2.9974 11.5469 2.91406C11.4219 2.83073 11.2943 2.75781 11.1641 2.69531C11.0339 2.6276 10.9297 2.57812 10.8516 2.54688C10.6016 2.44792 10.3359 2.36458 10.0547 2.29688C9.77865 2.22396 9.49479 2.16667 9.20312 2.125C8.91146 2.07812 8.61979 2.04688 8.32812 2.03125C8.04167 2.01042 7.76562 2 7.5 2ZM7.5 14C7.76562 14 8.04167 13.9922 8.32812 13.9766C8.61979 13.9557 8.91146 13.9245 9.20312 13.8828C9.49479 13.8359 9.77865 13.7786 10.0547 13.7109C10.3359 13.6432 10.6016 13.5573 10.8516 13.4531C10.9297 13.4219 11.0339 13.375 11.1641 13.3125C11.2943 13.2448 11.4219 13.1693 11.5469 13.0859C11.6719 13.0026 11.7786 12.9115 11.8672 12.8125C11.9557 12.7083 12 12.6042 12 12.5V4.98438C11.7031 5.17708 11.3672 5.33854 10.9922 5.46875C10.6172 5.59896 10.2266 5.70312 9.82031 5.78125C9.41927 5.85938 9.01823 5.91667 8.61719 5.95312C8.21615 5.98438 7.84375 6 7.5 6C7.15625 6 6.78125 5.98438 6.375 5.95312C5.97396 5.91667 5.57292 5.85938 5.17188 5.78125C4.77083 5.70312 4.38281 5.59896 4.00781 5.46875C3.63281 5.33854 3.29688 5.17708 3 4.98438V12.5C3 12.6042 3.04427 12.7083 3.13281 12.8125C3.22135 12.9115 3.32812 13.0026 3.45312 13.0859C3.57812 13.1693 3.70573 13.2448 3.83594 13.3125C3.96615 13.375 4.07031 13.4219 4.14844 13.4531C4.39844 13.5573 4.66146 13.6432 4.9375 13.7109C5.21875 13.7786 5.50521 13.8359 5.79688 13.8828C6.08854 13.9245 6.3776 13.9557 6.66406 13.9766C6.95573 13.9922 7.23438 14 7.5 14Z" fill="white"/>
</svg>
