<svg width="17" height="17" viewBox="0 0 17 17" fill="none" xmlns="http://www.w3.org/2000/svg">
<path d="M12.5 2.077C13.2046 2.59699 13.8427 3.20151 14.4 3.877C14.916 4.54087 15.3212 5.28379 15.6 6.077C15.8855 6.91333 16.0209 7.79354 16 8.677C15.9987 9.38758 15.8977 10.0945 15.7 10.777C15.5378 11.4494 15.2676 12.0911 14.9 12.677C14.5578 13.2824 14.1558 13.8519 13.7 14.377C13.1749 14.8328 12.6054 15.2348 12 15.577C11.4141 15.9446 10.7724 16.2148 10.1 16.377C8.72857 16.777 7.27143 16.777 5.9 16.377C5.2276 16.2148 4.58594 15.9446 4 15.577C3.39464 15.2348 2.82512 14.8328 2.3 14.377C1.84417 13.8519 1.44216 13.2824 1.1 12.677C0.732411 12.0911 0.46224 11.4494 0.3 10.777C-0.1 9.40557 -0.1 7.94843 0.3 6.577C0.505656 5.88752 0.77342 5.21811 1.1 4.577C1.47763 4.00072 1.91323 3.4646 2.4 2.977C2.92265 2.48895 3.49206 2.05352 4.1 1.677H2V0.677002H6V4.677H5V2.377C4.37688 2.64803 3.80256 3.01965 3.3 3.477C2.82329 3.91049 2.41827 4.41676 2.1 4.977C1.73422 5.4915 1.4633 6.06721 1.3 6.677C1.10231 7.32532 1.00123 7.99922 1 8.677C1.00215 9.32196 1.10333 9.96276 1.3 10.577C1.42902 11.1501 1.66664 11.6933 2 12.177C2.2781 12.7069 2.65092 13.1814 3.1 13.577C3.49558 14.0261 3.97007 14.3989 4.5 14.677L6.1 15.477L8 15.677L9.9 15.477L11.5 14.677C12.0299 14.3989 12.5044 14.0261 12.9 13.577C13.3491 13.1814 13.7219 12.7069 14 12.177C14.3256 11.6753 14.594 11.1386 14.8 10.577C14.9158 9.94981 14.9827 9.31456 15 8.677C15.0135 7.89192 14.8778 7.11142 14.6 6.377C14.3679 5.69537 14.0304 5.05428 13.6 4.477C13.1078 3.86972 12.536 3.33154 11.9 2.877C11.2832 2.47663 10.6087 2.17311 9.9 1.977L10.1 0.977002C10.9659 1.17829 11.7822 1.55244 12.5 2.077V2.077Z" fill="white"/>
</svg>
