<svg width="16" height="16" viewBox="0 0 16 16" fill="none" xmlns="http://www.w3.org/2000/svg">
<path fill-rule="evenodd" clip-rule="evenodd" d="M8.75896 14.2577C8.65556 14.1132 8.5648 13.9631 8.48667 13.8075H4.64706V3.5615H9.94118V6.97682H13.4706V9.565C13.6314 9.59613 13.7819 9.63282 13.9221 9.67507C14.0623 9.71731 14.2059 9.77179 14.3529 9.83849V6.3698L12.5882 4.66214V1H2V12.9536H3.76471V14.6613H9.10708C8.9784 14.5368 8.86236 14.4023 8.75896 14.2577ZM10.9412 4.18764L12.9609 6.14211H10.9412V4.18764ZM3.82353 2.76459V12.1567H2.94118V1.91075H11.7647V3.86523L10.6273 2.76459H3.82353Z" fill="#212121"/>
<path d="M12.2059 9.83716V12.114H10.1353V12.8142H12.2059V15H12.9294V12.8142H15V12.023H12.9294V9.83716H12.2059Z" fill="#212121"/>
</svg>
