<svg width="16" height="16" viewBox="0 0 16 16" fill="none" xmlns="http://www.w3.org/2000/svg">
<path d="M8 0L9.2 0.2L10.3 0.6L11.2 1.3L11.9 2.2C12.0924 2.54239 12.2276 2.91397 12.3 3.3C12.4153 3.69037 12.4824 4.09335 12.5 4.5C12.4824 4.90665 12.4153 5.30963 12.3 5.7C12.2101 6.04912 12.0757 6.38521 11.9 6.7L11.2 7.5C11.0202 7.78138 10.7814 8.02024 10.5 8.2L9.8 8.9L9.1 9.6C8.92607 9.88026 8.79147 10.1831 8.7 10.5C8.58622 10.8222 8.51888 11.1589 8.5 11.5V13H7.5V11.5C7.51757 11.0934 7.58474 10.6904 7.7 10.3C7.78986 9.95088 7.9243 9.61479 8.1 9.3L8.8 8.5L9.5 7.8L10.2 7.1C10.4814 6.92024 10.7202 6.68138 10.9 6.4C11.0739 6.11974 11.2085 5.81691 11.3 5.5C11.4138 5.17785 11.4811 4.84113 11.5 4.5C11.507 4.01666 11.4045 3.53802 11.2 3.1C11.0268 2.69834 10.7905 2.32698 10.5 2C10.173 1.70949 9.80166 1.47316 9.4 1.3C8.96198 1.09554 8.48334 0.992976 8 1C7.51666 0.992976 7.03802 1.09554 6.6 1.3C6.19834 1.47316 5.82698 1.70949 5.5 2C5.20949 2.32698 4.97316 2.69834 4.8 3.1C4.59554 3.53802 4.49298 4.01666 4.5 4.5H3.5C3.51757 4.09335 3.58474 3.69037 3.7 3.3C3.77243 2.91397 3.90755 2.54239 4.1 2.2L4.8 1.3L5.7 0.6L6.8 0.2L8 0ZM7.5 15H8.5V16H7.5V15Z" fill="#323130"/>
</svg>
