<svg width="24" height="24" viewBox="0 0 24 24" fill="none" xmlns="http://www.w3.org/2000/svg">
<path d="M7.09434 1.68041C7.23155 1.27388 7.61278 1.00018 8.04184 1.00018H15.0228L7.82845 22.3168C7.69125 22.7233 7.31001 22.997 6.88096 22.997H1.29291C0.608778 22.997 0.126648 22.3254 0.345419 21.6772L7.09434 1.68041Z" fill="url(#paint0_linear_915_32971)"/>
<path d="M17.8277 15.0079H6.96549C6.5045 15.0079 6.28536 15.5755 6.62674 15.8853L14.179 22.7383C14.363 22.9052 14.6025 22.9977 14.851 22.9977H20.7973L17.8277 15.0079Z" fill="#0078D4"/>
<g opacity="0.5">
<path d="M15.8703 22.9977H20.7974L17.8277 15.0079H13.5269L15.9515 22.1773C16.0493 22.4667 16.0075 22.7608 15.8703 22.9977Z" fill="black"/>
<path d="M11.9094 10.225L15.0228 1.00018H8.76079C8.80194 1.06564 8.83591 1.1366 8.86146 1.21214L11.9094 10.225Z" fill="black"/>
</g>
<g opacity="0.5">
<path d="M7.80673 1.0325H7.91416C8.12857 1.0325 8.31912 1.16921 8.38781 1.37232L11.6458 11.0062L12.1731 9.44386L9.3351 1.05197L9.32837 1.0325H15.0119L15.0228 1.00018H8.04185C7.96136 1.00018 7.88256 1.00981 7.80673 1.02815V1.0325Z" fill="black" fill-opacity="0.5"/>
<path d="M14.8462 22.9977L14.851 22.9977H20.7973L16.4191 22.9977C16.5267 22.6955 16.5391 22.3542 16.4251 22.0172L14.0547 15.0079H12.9991L15.4778 22.3375C15.5874 22.6617 15.3464 22.9977 15.0042 22.9977H14.8462Z" fill="black" fill-opacity="0.5"/>
</g>
<path d="M16.9025 1.68111C16.7653 1.27458 16.3841 1.00089 15.955 1.00089H8.14917H8.25613C8.68519 1.00089 9.06642 1.27458 9.20363 1.68111L15.9525 21.6779C16.1713 22.3261 15.6892 22.9977 15.0051 22.9977H14.7482H22.7039C23.3881 22.9977 23.8702 22.3261 23.6514 21.6779L16.9025 1.68111Z" fill="url(#paint1_linear_915_32971)"/>
<defs>
<linearGradient id="paint0_linear_915_32971" x1="8.06644" y1="1.76157" x2="0.892257" y2="22.9558" gradientUnits="userSpaceOnUse">
<stop stop-color="#114A8B"/>
<stop offset="1" stop-color="#0669BC"/>
</linearGradient>
<linearGradient id="paint1_linear_915_32971" x1="12.6151" y1="1.76231" x2="20.4901" y2="22.7432" gradientUnits="userSpaceOnUse">
<stop stop-color="#3CCBF4"/>
<stop offset="1" stop-color="#2892DF"/>
</linearGradient>
</defs>
</svg>
