<svg width="24" height="24" viewBox="0 0 24 24" fill="none" xmlns="http://www.w3.org/2000/svg">
<path d="M12.0364 6.55826C7.06531 6.54537 3.04 5.06671 3.04444 3.25606L3 20.6991C3 22.495 6.95553 23.963 11.8693 23.9999H11.9919C16.963 24.0124 20.9968 22.5555 21.0008 20.7439L21.0452 3.30095C21.0408 5.11382 17.0075 6.5707 12.0364 6.55826Z" fill="url(#paint0_linear_726_32984)"/>
<path d="M21.0443 3.30228C21.0443 5.11249 17.0066 6.5707 12.0355 6.55826C7.06442 6.54582 3.04 5.06671 3.04444 3.25606C3.04889 1.4454 7.08086 -0.0123653 12.0533 7.90848e-05C17.0257 0.0125234 21.0492 1.49118 21.0443 3.30228Z" fill="#E6E6E6"/>
<path d="M18.9403 3.03115C18.9403 4.18359 15.8452 5.10802 12.0364 5.09825C8.22752 5.08847 5.14221 4.14803 5.14754 2.99604C5.15287 1.84404 8.24219 0.919163 12.0528 0.92894C15.8635 0.938718 18.9492 1.87916 18.9466 3.03115" fill="#50E6FF"/>
<path d="M12.0435 3.49428C10.1907 3.44583 8.34283 3.70843 6.57686 4.27117C8.33633 4.86146 10.185 5.14133 12.0404 5.09827C13.8952 5.15028 15.7449 4.87959 17.507 4.29828C15.7436 3.72664 13.8968 3.45487 12.0435 3.49428V3.49428Z" fill="#198AB3"/>
<defs>
<linearGradient id="paint0_linear_726_32984" x1="3.0806" y1="13.6786" x2="21.0818" y2="13.7326" gradientUnits="userSpaceOnUse">
<stop stop-color="#005BA1"/>
<stop offset="0.068" stop-color="#0060A9"/>
<stop offset="0.356" stop-color="#0071C8"/>
<stop offset="0.517" stop-color="#0078D4"/>
<stop offset="0.642" stop-color="#0074CD"/>
<stop offset="0.82" stop-color="#006ABB"/>
<stop offset="1" stop-color="#005BA1"/>
</linearGradient>
</defs>
</svg>
