<svg width="24" height="24" viewBox="0 0 24 24" fill="none" xmlns="http://www.w3.org/2000/svg">
<path d="M6.75281 13.3863L14.8901 18.4906L15.5182 18.7216L15.1564 18.3743L7.27867 13.1883L6.75281 13.3863Z" fill="#1D4A79"/>
<path d="M15.1174 17.991L15.1146 18.3777L7.39029 13.9586L7.39151 13.5339L15.1174 17.991Z" fill="#139FE5"/>
<path d="M17.0256 16.9438L23.8494 12.9672L16.1234 8.51016L9.28877 12.4788L8.94889 13.7659L7.39739 13.5356L0.219803 17.6823L7.94606 22.1394L14.9254 18.1071C14.9254 18.1071 15.347 18.4744 15.6188 18.4995C15.8446 18.5203 16.8046 17.9723 16.9107 17.7694C17.0531 17.4969 17.0305 17.1029 17.0305 17.1029L17.0256 16.9438Z" fill="#004E99"/>
<path d="M23.848 12.9662L17.1884 16.8334L17.0367 16.9214C17.0296 16.9256 17.0236 16.9315 17.0194 16.9387C17.0153 16.9459 17.013 16.954 17.013 16.9623V16.9945C17.0078 17.059 16.9953 17.1749 16.9649 17.347C16.9156 17.6271 16.6731 17.9775 16.3573 18.1519L16.0069 18.3455C15.7753 18.4733 15.5167 18.3942 15.3288 18.2015C15.2915 18.1634 15.1955 18.0658 15.1492 18.0188C15.1418 18.0114 15.1321 18.0066 15.1218 18.0052C15.1114 18.0038 15.1008 18.0059 15.0917 18.0111L7.946 22.1396L7.94478 22.5643L15.0894 18.4365C15.0984 18.4313 15.109 18.4292 15.1193 18.4306C15.1297 18.4319 15.1393 18.4367 15.1467 18.4441C15.1752 18.4729 15.2225 18.5205 15.262 18.5598C15.4393 18.737 15.7333 18.834 15.9589 18.7024L16.5671 18.3475C16.718 18.2594 16.8485 18.1403 16.9498 17.9981C17.0512 17.8558 17.121 17.6937 17.1549 17.5224L17.2055 17.2662C17.2068 17.2597 17.2095 17.2534 17.2134 17.2479C17.2173 17.2425 17.2223 17.2378 17.2281 17.2345L23.8467 13.3909L23.848 12.9662Z" fill="#139FE5"/>
<path d="M7.94604 22.1395L7.94478 22.5642L0.218536 18.1069L0.219769 17.6823L7.94604 22.1395Z" fill="#156AB3"/>
<path d="M22.5863 11.5471C22.5863 11.5471 18.0581 14.2777 17.1099 14.7935C15.9457 15.427 15.8775 17.7036 15.8775 17.7036L8.66035 13.3353C8.66035 13.3353 8.73066 11.4144 10.4196 10.4598C11.3007 9.96183 15.3928 7.55049 15.3928 7.55049L22.5863 11.5471Z" fill="#E8E8E8"/>
<path d="M22.5863 11.5471C22.5863 11.5471 18.0581 14.2777 17.1099 14.7935C15.9457 15.427 15.8775 17.7036 15.8775 17.7036L8.66035 13.3353C8.66035 13.3353 8.73066 11.4144 10.4196 10.4598C11.3007 9.96183 15.3928 7.55049 15.3928 7.55049L22.5863 11.5471Z" fill="url(#paint0_linear_915_33230)"/>
<path d="M11.2747 12.5624C11.4309 12.1601 11.6799 11.7099 12.058 11.4876C12.7401 11.0867 16.0475 9.10868 16.0475 9.10868L15.6287 8.87589C15.6287 8.87589 12.6291 10.6433 11.9832 11.0085C11.4679 11.3036 11.0742 11.7719 10.8722 12.33L11.2747 12.5624Z" fill="#E2E2E2"/>
<path d="M12.182 13.0859C12.3385 12.6883 12.5858 12.2483 12.9582 12.0297C13.6403 11.6287 16.9477 9.65072 16.9477 9.65072L16.5288 9.41792C16.5288 9.41792 13.5292 11.1855 12.8832 11.5506C12.3737 11.8422 11.983 12.3035 11.7795 12.8539L12.182 13.0859Z" fill="#E2E2E2"/>
<path d="M13.0894 13.6093C13.2463 13.2167 13.4917 12.7867 13.8583 12.5713C14.5404 12.1703 17.8478 10.1923 17.8478 10.1923L17.4289 9.9595C17.4289 9.9595 14.4293 11.7271 13.7834 12.0922C13.2796 12.3803 12.8919 12.8346 12.6869 13.3771L13.0894 13.6093Z" fill="#E2E2E2"/>
<path d="M15.902 17.6124L15.8615 17.6517C15.8005 17.6054 15.7356 17.5643 15.6676 17.5289C15.2418 17.3989 14.2792 17.2447 13.5663 17.6517C12.6232 18.1901 8.59634 20.5376 8.59634 20.5376L0.870361 16.0806C0.870361 16.0806 4.89052 13.7531 5.86961 13.1743C7.41118 12.2632 8.6642 13.286 8.6642 13.286L15.902 17.6124Z" fill="#E8E8E8"/>
<path d="M15.902 17.6124L15.8615 17.6517C15.8005 17.6054 15.7356 17.5643 15.6676 17.5289C15.2418 17.3989 14.2792 17.2447 13.5663 17.6517C12.6232 18.1901 8.59634 20.5376 8.59634 20.5376L0.870361 16.0806C0.870361 16.0806 4.89052 13.7531 5.86961 13.1743C7.41118 12.2632 8.6642 13.286 8.6642 13.286L15.902 17.6124Z" fill="url(#paint1_linear_915_33230)"/>
<path d="M0.851166 17.5655C0.851166 17.5655 0.949525 17.1319 0.953554 16.9856C0.953369 16.682 0.925732 16.3791 0.870979 16.0805L7.85487 20.1012L8.13929 21.0438L7.90793 21.578L0.851166 17.5655Z" fill="#F4F4F4"/>
<path d="M7.98601 20.5366L0.92363 16.439C0.933869 16.5273 0.94311 16.6254 0.9488 16.7255L8.08581 20.8668L7.98601 20.5366Z" fill="#E2E2E2"/>
<path d="M7.99361 21.3801L8.08706 21.1643L0.950558 17.0279C0.944207 17.0933 0.928659 17.1853 0.911545 17.2752L7.99361 21.3801Z" fill="#E2E2E2"/>
<path d="M22.8013 12.3075C22.7282 12.1378 22.5893 11.5449 22.5893 11.5449C22.5893 11.5449 17.5505 14.4801 16.9084 14.8699C16.0183 15.4104 15.8125 17.0772 15.7954 17.5522C15.7235 17.511 14.4349 16.5728 12.8253 17.3005C12.1411 17.6099 7.85487 20.1015 7.85487 20.1015C7.91786 20.4005 7.9583 20.7038 7.9758 21.0088C7.9817 21.1551 7.9079 21.5783 7.9079 21.5783C7.9079 21.5783 13.3193 18.454 13.6802 18.2443C14.2642 17.9049 14.6567 17.728 15.0158 17.7138C15.3866 17.6992 15.5598 18.1401 15.8806 18.0344C16.4516 17.8463 16.5734 17.5797 16.6811 17.0345C16.7305 16.7845 16.8909 16.467 17.4828 16.1418C18.0164 15.8486 23.1823 12.8909 23.1823 12.8909C23.1823 12.8909 22.8593 12.442 22.8013 12.3075Z" fill="#CDCDD0"/>
<path d="M13.6631 18.2979C13.3612 17.5092 12.6736 16.9302 11.329 16.1122L5.8572 13.1284L4.34715 13.9911L9.85855 17.1675C11.3476 17.9877 11.9117 17.9917 12.4294 19.5336C12.5774 19.9742 12.8421 21.1685 12.9968 21.9709L13.2663 21.8673L13.6144 20.8751L14.3091 21.4332L14.4893 21.3455C14.2707 20.1425 13.8796 18.8639 13.6631 18.2979Z" fill="#139FE5"/>
<path d="M12.1874 9.51499V12.1019L9.95323 10.7967V8.2215L12.1874 9.51499Z" fill="#50E6FF"/>
<path d="M12.1874 9.51499L14.3863 8.2215L14.3746 10.7967L12.1874 12.1019V9.51499Z" fill="#45CAF2"/>
<path d="M9.95323 8.22151L12.1874 6.92805L14.3863 8.22151L12.1874 9.515L9.95323 8.22151Z" fill="#84ECFD"/>
<path d="M10.1202 3.48271V5.43732L8.43214 4.45114V2.5054L10.1202 3.48271Z" fill="#1D4A79"/>
<path d="M10.1202 3.48271L11.7817 2.5054V4.45114L10.1202 5.43732V3.48271Z" fill="#243A5E"/>
<path d="M8.43214 2.50539L10.1202 1.52808L11.7817 2.50539L10.1202 3.4827L8.43214 2.50539Z" fill="#156AB3"/>
<path d="M4.35554 8.25953V11.4833L1.57137 9.85675V6.64761L4.35554 8.25953Z" fill="#2195DC"/>
<path d="M4.35558 8.25953L7.09578 6.64761V9.85675L4.35558 11.4833V8.25953Z" fill="#0078D4"/>
<path d="M1.57137 6.64763L4.35553 5.03575L7.09574 6.64763L4.35553 8.25954L1.57137 6.64763Z" fill="#45CAF2"/>
<defs>
<linearGradient id="paint0_linear_915_33230" x1="19.2654" y1="8.90044" x2="11.0848" y2="19.8363" gradientUnits="userSpaceOnUse">
<stop stop-color="white" stop-opacity="0"/>
<stop offset="1" stop-color="white"/>
</linearGradient>
<linearGradient id="paint1_linear_915_33230" x1="12.8464" y1="13.4086" x2="3.60736" y2="20.9045" gradientUnits="userSpaceOnUse">
<stop stop-color="#D2D2D2"/>
<stop offset="1" stop-color="white" stop-opacity="0"/>
</linearGradient>
</defs>
</svg>
