<svg width="24" height="24" viewBox="0 0 24 24" fill="none" xmlns="http://www.w3.org/2000/svg">
<path d="M23.7332 11.0534L12.5465 0.666758C12.3969 0.530904 12.202 0.455643 11.9999 0.455643C11.7977 0.455643 11.6028 0.530904 11.4532 0.666758L0.266521 11.0534C0.14719 11.1714 0.0665782 11.3229 0.0353967 11.4877C0.00421525 11.6526 0.0239408 11.823 0.091952 11.9764C0.159963 12.1298 0.27304 12.2589 0.416157 12.3465C0.559273 12.434 0.725653 12.476 0.893188 12.4668H3.18652C3.29261 12.4668 3.39435 12.5089 3.46936 12.5839C3.54438 12.6589 3.58652 12.7607 3.58652 12.8668V22.7334C3.58652 22.9491 3.67221 23.156 3.82474 23.3085C3.97727 23.4611 4.18414 23.5468 4.39985 23.5468H19.5999C19.8156 23.5468 20.0224 23.4611 20.175 23.3085C20.3275 23.156 20.4132 22.9491 20.4132 22.7334V12.8668C20.4132 12.7607 20.4553 12.6589 20.5303 12.5839C20.6054 12.5089 20.7071 12.4668 20.8132 12.4668H23.1065C23.2741 12.476 23.4404 12.434 23.5836 12.3465C23.7267 12.2589 23.8397 12.1298 23.9078 11.9764C23.9758 11.823 23.9955 11.6526 23.9643 11.4877C23.9331 11.3229 23.8525 11.1714 23.7332 11.0534V11.0534Z" fill="url(#paint0_linear_915_33267)"/>
<path d="M9.42648 16.5333H14.5731C14.6957 16.5467 14.8084 16.6069 14.8879 16.7012C14.9673 16.7956 15.0074 16.9169 14.9998 17.0399V23.5466H8.99981V17.0399C8.99222 16.9169 9.0323 16.7956 9.11174 16.7012C9.19118 16.6069 9.30389 16.5467 9.42648 16.5333V16.5333Z" fill="#E6E6E6"/>
<path d="M0.893188 12.4668H1.59985L11.4532 3.32009C11.6028 3.18424 11.7977 3.10898 11.9999 3.10898C12.202 3.10898 12.3969 3.18424 12.5465 3.32009L22.3999 12.4668H23.1065C23.2741 12.476 23.4404 12.434 23.5836 12.3465C23.7267 12.2589 23.8397 12.1298 23.9078 11.9764C23.9758 11.823 23.9955 11.6526 23.9643 11.4877C23.9331 11.3229 23.8525 11.1714 23.7332 11.0534L12.5465 0.666758C12.3969 0.530904 12.202 0.455643 11.9999 0.455643C11.7977 0.455643 11.6028 0.530904 11.4532 0.666758L0.266521 11.0534C0.14719 11.1714 0.0665782 11.3229 0.0353967 11.4877C0.00421525 11.6526 0.0239408 11.823 0.091952 11.9764C0.159963 12.1298 0.27304 12.2589 0.416157 12.3465C0.559273 12.434 0.725653 12.476 0.893188 12.4668V12.4668Z" fill="#005BA1"/>
<defs>
<linearGradient id="paint0_linear_915_33267" x1="11.9999" y1="23.5468" x2="11.9999" y2="0.453425" gradientUnits="userSpaceOnUse">
<stop stop-color="#0078D4"/>
<stop offset="0.17" stop-color="#1C84DC"/>
<stop offset="0.38" stop-color="#3990E4"/>
<stop offset="0.59" stop-color="#4D99EA"/>
<stop offset="0.8" stop-color="#5A9EEE"/>
<stop offset="1" stop-color="#5EA0EF"/>
</linearGradient>
</defs>
</svg>
