<svg width="24" height="24" viewBox="0 0 24 24" fill="none" xmlns="http://www.w3.org/2000/svg">
<g clip-path="url(#clip0_915_32950)">
<path d="M1.76666 8.95972H21.0333V19.7014C21.0333 19.8722 20.9655 20.0359 20.8448 20.1566C20.7241 20.2774 20.5603 20.3452 20.3896 20.3452H2.4104C2.23967 20.3452 2.07593 20.2774 1.95521 20.1566C1.83448 20.0359 1.76666 19.8722 1.76666 19.7014V8.95972Z" fill="url(#paint0_linear_915_32950)"/>
<path d="M2.4138 4.85479H20.3862C20.4707 4.85479 20.5544 4.87144 20.6325 4.90379C20.7106 4.93614 20.7816 4.98356 20.8414 5.04334C20.9012 5.10311 20.9486 5.17408 20.9809 5.25218C21.0133 5.33028 21.0299 5.41399 21.0299 5.49852V8.95972H1.76666V5.49852C1.76666 5.4137 1.78342 5.32971 1.81599 5.25139C1.84855 5.17307 1.89627 5.10195 1.95641 5.04213C2.01654 4.98231 2.08791 4.93496 2.16641 4.90281C2.2449 4.87066 2.32897 4.85434 2.4138 4.85479V4.85479Z" fill="#0078D4"/>
<path d="M4.40132 11.4424L4.81985 11.0227C4.8553 10.9871 4.90341 10.9671 4.95361 10.9671C5.0038 10.967 5.05197 10.9869 5.08752 11.0223L8.18364 14.1097C8.21894 14.1449 8.24697 14.1867 8.26611 14.2327C8.28526 14.2788 8.29515 14.3281 8.29522 14.378C8.29529 14.4278 8.28554 14.4772 8.26652 14.5233C8.24751 14.5694 8.2196 14.6113 8.1844 14.6466L7.76666 15.0655L4.4025 11.7109C4.36696 11.6754 4.34695 11.6273 4.34688 11.5771C4.34681 11.5269 4.36668 11.4787 4.40212 11.4432L4.40132 11.4424Z" fill="#F2F2F2"/>
<path d="M4.88198 17.704L4.46226 17.2854C4.42672 17.25 4.40671 17.2019 4.40664 17.1517C4.40657 17.1015 4.42644 17.0533 4.46189 17.0178L7.76774 13.7026L8.18665 14.1203C8.25795 14.1914 8.29809 14.2879 8.29823 14.3886C8.29837 14.4893 8.25851 14.5859 8.18741 14.6572L5.14645 17.7068C5.111 17.7424 5.06289 17.7624 5.01269 17.7624C4.9625 17.7625 4.91433 17.7426 4.87878 17.7072L4.88198 17.704Z" fill="#E6E6E6"/>
<path d="M14.4611 16.7253H9.71357C9.53142 16.7253 9.38377 16.873 9.38377 17.0551V17.5413C9.38377 17.7235 9.53142 17.8711 9.71357 17.8711H14.4611C14.6432 17.8711 14.7909 17.7235 14.7909 17.5413V17.0551C14.7909 16.873 14.6432 16.7253 14.4611 16.7253Z" fill="#F2F2F2"/>
</g>
<defs>
<linearGradient id="paint0_linear_915_32950" x1="11.4" y1="20.3452" x2="11.4" y2="8.95972" gradientUnits="userSpaceOnUse">
<stop stop-color="#32BEDD"/>
<stop offset="0.175" stop-color="#32CAEA"/>
<stop offset="0.41" stop-color="#32D2F2"/>
<stop offset="0.775" stop-color="#32D4F5"/>
</linearGradient>
<clipPath id="clip0_915_32950">
<rect width="20.4" height="20.4" fill="white" transform="translate(1.2 2.39999)"/>
</clipPath>
</defs>
</svg>
