<svg width="24" height="24" viewBox="0 0 24 24" fill="none" xmlns="http://www.w3.org/2000/svg">
<path fill-rule="evenodd" clip-rule="evenodd" d="M16 23.09C16 23.2095 15.9765 23.3278 15.9307 23.4382C15.885 23.5486 15.818 23.649 15.7335 23.7335C15.649 23.818 15.5486 23.885 15.4382 23.9307C15.3278 23.9765 15.2095 24 15.09 24H0.91C0.790497 24 0.672164 23.9765 0.561758 23.9307C0.451352 23.885 0.351034 23.818 0.266533 23.7335C0.182032 23.649 0.115001 23.5486 0.0692696 23.4382C0.0235378 23.3278 0 23.2095 0 23.09L0 8.91C0 8.66865 0.0958747 8.43719 0.266533 8.26653C0.437191 8.09587 0.668653 8 0.91 8H15.09C15.3313 8 15.5628 8.09587 15.7335 8.26653C15.9041 8.43719 16 8.66865 16 8.91V23.09Z" fill="#005BA1"/>
<path fill-rule="evenodd" clip-rule="evenodd" d="M20 19.09C20 19.3313 19.9041 19.5628 19.7335 19.7335C19.5628 19.9041 19.3313 20 19.09 20H4.91C4.66865 20 4.43719 19.9041 4.26653 19.7335C4.09587 19.5628 4 19.3313 4 19.09V4.91C4 4.66865 4.09587 4.43719 4.26653 4.26653C4.43719 4.09587 4.66865 4 4.91 4H19.09C19.3313 4 19.5628 4.09587 19.7335 4.26653C19.9041 4.43719 20 4.66865 20 4.91V19.09Z" fill="#5EA0EF"/>
<path d="M15.09 8H4V19.09C4 19.3313 4.09587 19.5628 4.26653 19.7335C4.43719 19.9041 4.66865 20 4.91 20H16V8.91C16 8.66865 15.9041 8.43719 15.7335 8.26653C15.5628 8.09587 15.3313 8 15.09 8V8Z" fill="#0078D4"/>
<path fill-rule="evenodd" clip-rule="evenodd" d="M24 15.09C24 15.2095 23.9765 15.3278 23.9307 15.4382C23.885 15.5486 23.818 15.649 23.7335 15.7335C23.649 15.818 23.5486 15.885 23.4382 15.9307C23.3278 15.9765 23.2095 16 23.09 16H8.91C8.66865 16 8.43719 15.9041 8.26653 15.7335C8.09587 15.5628 8 15.3313 8 15.09V0.91C8 0.668653 8.09587 0.437191 8.26653 0.266533C8.43719 0.0958747 8.66865 0 8.91 0L23.09 0C23.2095 0 23.3278 0.0235378 23.4382 0.0692696C23.5486 0.115001 23.649 0.182032 23.7335 0.266533C23.818 0.351034 23.885 0.451352 23.9307 0.561758C23.9765 0.672164 24 0.790497 24 0.91V15.09Z" fill="#E6E7E8"/>
<path d="M15.09 8H8V15.09C8 15.3313 8.09587 15.5628 8.26653 15.7335C8.43719 15.9041 8.66865 16 8.91 16H16V8.91C16 8.66865 15.9041 8.43719 15.7335 8.26653C15.5628 8.09587 15.3313 8 15.09 8V8Z" fill="#BCBEC0"/>
<path d="M19.09 4H8V8H15.09C15.3313 8 15.5628 8.09587 15.7335 8.26653C15.9041 8.43719 16 8.66865 16 8.91V16H20V4.91C20 4.66865 19.9041 4.43719 19.7335 4.26653C19.5628 4.09587 19.3313 4 19.09 4V4Z" fill="#D1D3D4"/>
</svg>
