<svg width="24" height="24" viewBox="0 0 24 24" fill="none" xmlns="http://www.w3.org/2000/svg">
<g clip-path="url(#clip0_915_32930)">
<path d="M12.0133 6.55733C7.04395 6.54533 3.01728 5.06666 3.02261 3.256L2.97728 20.6973C2.97328 22.4933 6.93328 23.9627 11.8453 24H11.9693C16.9399 24.012 20.9733 22.5547 20.9773 20.744L21.0226 3.30133C21.0173 5.11333 16.9839 6.57066 12.0133 6.55733Z" fill="url(#paint0_linear_915_32930)"/>
<path d="M21.0226 3.30133C21.0226 5.11333 16.9839 6.57067 12.0132 6.55733C7.04257 6.544 3.01724 5.06667 3.02257 3.256C3.02791 1.44533 7.06657 -0.0133342 12.0306 -8.68706e-07C16.9946 0.0133325 21.0266 1.49067 21.0226 3.30133Z" fill="#E6E6E6"/>
<path d="M18.9213 3.03066C18.9213 4.18266 15.828 5.10799 12.0173 5.09732C8.20668 5.08666 5.12135 4.14666 5.12401 2.99599C5.12668 1.84532 8.21868 0.918656 12.028 0.933323C15.8373 0.94799 18.9253 1.88532 18.9213 3.03599" fill="#50E6FF"/>
<path d="M12.0213 3.49333C10.1685 3.44524 8.32068 3.70799 6.55468 4.27067C8.31521 4.86098 10.165 5.14071 12.0213 5.09733C13.8761 5.14867 15.7257 4.878 17.488 4.29733C15.7236 3.7254 13.8757 3.45362 12.0213 3.49333V3.49333Z" fill="#198AB3"/>
<path d="M5.96658 17.6333V10.7507H8.39991C10.8435 10.7507 12.0652 11.8689 12.0652 14.1053C12.0874 14.5795 12.0098 15.053 11.8376 15.4954C11.6653 15.9377 11.4022 16.339 11.0652 16.6733C10.706 17.0013 10.2855 17.255 9.82781 17.4197C9.37015 17.5845 8.88441 17.6571 8.39858 17.6333H5.96658ZM7.51724 12.0133V16.376H8.28524C8.57654 16.3917 8.86789 16.3459 9.14034 16.2416C9.41278 16.1374 9.66023 15.9769 9.86658 15.7707C10.2663 15.3188 10.4723 14.7278 10.4399 14.1253C10.4548 13.8419 10.4116 13.5583 10.313 13.2921C10.2145 13.026 10.0625 12.7827 9.86658 12.5773C9.65154 12.3805 9.399 12.2291 9.12407 12.1322C8.84915 12.0353 8.55749 11.9949 8.26658 12.0133H7.51724Z" fill="#F2F2F2"/>
<path d="M13.2133 17.6333V10.7507H15.7186C16.3377 10.7131 16.954 10.8602 17.4893 11.1733C17.6867 11.3012 17.8476 11.4781 17.956 11.6869C18.0645 11.8956 18.1168 12.1289 18.1079 12.364C18.1114 12.7231 17.9773 13.0699 17.7333 13.3333C17.4751 13.6158 17.1408 13.8177 16.7706 13.9147V13.9333C17.213 13.972 17.628 14.1639 17.9439 14.476C18.0872 14.6202 18.1998 14.7919 18.2752 14.9807C18.3506 15.1694 18.3871 15.3715 18.3826 15.5747C18.3943 15.86 18.3392 16.1442 18.2219 16.4046C18.1046 16.6649 17.9281 16.8944 17.7066 17.0747C17.1745 17.4702 16.5205 17.6665 15.8586 17.6293L13.2133 17.6333ZM14.7639 11.9V13.532H15.4453C15.7171 13.5471 15.9853 13.4643 16.2013 13.2987C16.2931 13.2202 16.3658 13.1217 16.4136 13.0107C16.4614 12.8998 16.4832 12.7793 16.4773 12.6587C16.4773 12.152 16.0995 11.8991 15.3439 11.9H14.7639ZM14.7639 14.6827V16.4973H15.5999C15.9014 16.5154 16.1995 16.4271 16.4426 16.248C16.5431 16.1661 16.623 16.0618 16.676 15.9435C16.729 15.8252 16.7536 15.6962 16.7479 15.5667C16.7535 15.4425 16.7291 15.3189 16.6769 15.2061C16.6247 15.0933 16.5462 14.9948 16.4479 14.9187C16.2033 14.748 15.9083 14.6649 15.6106 14.6827H14.7639Z" fill="#F2F2F2"/>
</g>
<defs>
<linearGradient id="paint0_linear_915_32930" x1="2.99601" y1="13.6154" x2="20.9959" y2="13.6616" gradientUnits="userSpaceOnUse">
<stop stop-color="#005BA1"/>
<stop offset="0.068" stop-color="#0060A9"/>
<stop offset="0.356" stop-color="#0071C8"/>
<stop offset="0.82" stop-color="#006ABB"/>
<stop offset="1" stop-color="#005BA1"/>
</linearGradient>
<clipPath id="clip0_915_32930">
<rect width="24" height="24" fill="white"/>
</clipPath>
</defs>
</svg>
